<svg width="170" height="172" fill="none" xmlns="http://www.w3.org/2000/svg"><g filter="url(#a)"><rect x="14" y="14" width="150" height="150" rx="20" fill="#fff"/></g><g clip-path="url(#b)" fill="#A0A2B4"><path d="M81.31 132.29c-14.51 0-26.31-11.8-26.31-26.3 0-9.27 4.74-17.68 12.67-22.5 1.27-.77 2.92-.37 3.69.9s.37 2.92-.9 3.69c-6.32 3.83-10.09 10.52-10.09 17.91 0 11.54 9.39 20.94 20.94 20.94 10.06 0 18.72-7.17 20.57-17.04a2.681 2.681 0 0 1 3.13-2.14c1.46.27 2.42 1.68 2.14 3.13-2.33 12.41-13.2 21.41-25.84 21.41Z"/><path d="M89.57 98.82c0 3-3.23 5.43-7.21 5.43s-7.21-1.47-7.21-5.43V69.88c0-3 3.23-5.44 7.21-5.44s7.21 2.43 7.21 5.44v28.94Z"/><path d="M82.91 104.28c-3 .06-5.48-2.33-5.53-5.33-.05-3 2.34-5.48 5.34-5.53l22.18-.4c3-.05 5.48 2.34 5.53 5.34.05 3-2.33 5.48-5.34 5.53l-22.18.39Z"/><path d="M121.16 124.98c-1.67.86-3.71.2-4.57-1.46l-12.65-24.56a3.392 3.392 0 1 1 6.03-3.11l12.65 24.56c.86 1.66.2 3.71-1.46 4.57Zm-12.54-44.24c0 1.75-1.42 3.17-3.17 3.17H85.07a3.171 3.171 0 0 1 0-6.34h20.38c1.75.01 3.17 1.42 3.17 3.17ZM90.96 54.61c0 4.75-3.85 8.61-8.6 8.61s-8.6-3.85-8.6-8.61c0-4.75 3.85-8.61 8.6-8.61s8.6 3.85 8.6 8.61Z"/></g><defs><clipPath id="b"><path fill="#fff" transform="translate(55 46)" d="M0 0h68v86.29H0z"/></clipPath><filter id="a" x="0" y="0" width="170" height="172" filterUnits="userSpaceOnUse" color-interpolation-filters="sRGB"><feFlood flood-opacity="0" result="BackgroundImageFix"/><feColorMatrix in="SourceAlpha" values="0 0 0 0 0 0 0 0 0 0 0 0 0 0 0 0 0 0 127 0" result="hardAlpha"/><feOffset dx="-4" dy="-4"/><feGaussianBlur stdDeviation="5"/><feComposite in2="hardAlpha" operator="out"/><feColorMatrix values="0 0 0 0 1 0 0 0 0 1 0 0 0 0 1 0 0 0 0.1 0"/><feBlend in2="BackgroundImageFix" result="effect1_dropShadow_2_187"/><feColorMatrix in="SourceAlpha" values="0 0 0 0 0 0 0 0 0 0 0 0 0 0 0 0 0 0 127 0" result="hardAlpha"/><feOffset dy="4"/><feGaussianBlur stdDeviation="2"/><feComposite in2="hardAlpha" operator="out"/><feColorMatrix values="0 0 0 0 0 0 0 0 0 0 0 0 0 0 0 0 0 0 0.25 0"/><feBlend in2="effect1_dropShadow_2_187" result="effect2_dropShadow_2_187"/><feBlend in="SourceGraphic" in2="effect2_dropShadow_2_187" result="shape"/></filter></defs></svg>