<svg width="170" height="172" fill="none" xmlns="http://www.w3.org/2000/svg"><g filter="url(#a)"><rect x="14" y="14" width="150" height="150" rx="20" fill="#fff"/></g><g clip-path="url(#b)"><path d="M73.06 40.5s8.91 9.04 8.91 21.25c0 2.78-3.51 1.97-3.16 4.66 1.07 8.17 13.33 16.48 12.79 20.7-.54 4.22-5.93 2.43-8.03 5.31-2.22 3.04 2.22 6.72 1.81 8.9-.41 2.18-9.86.22-9.86 1.99s8.99 2.86 8.85 4.22c-.14 1.36-3.54 3.68-3.54 5.99 0 2.32 3.53 7.58-1.8 11.49-4.22 3.09-11.23-3.17-18.93 1.96-2.36 1.57-6.09 7.8-5.55 10.94" stroke="#A0A2B4" stroke-width="5" stroke-miterlimit="10" stroke-linecap="round"/><path d="M98.64 115.721c-1.14-.97-1.08-2.76 0-3.85a10.949 10.949 0 0 0 0-15.49c-1.08-1.08-1.08-2.76 0-3.85 1.08-1.08 2.76-1.08 3.85 0 6.39 6.39 6.39 16.79 0 23.18-.55.55-2.5 1.2-3.85.01Z" fill="#A0A2B4"/><path d="M105.41 122.43c-1.14-.97-1.08-2.76 0-3.84 8.01-8.01 8.01-21.01 0-28.97-1.08-1.08-1.08-2.76 0-3.85 1.08-1.08 2.76-1.08 3.85 0 10.13 10.13 10.13 26.53 0 36.66-.55.54-2.39 1.35-3.85 0Z" fill="#A0A2B4"/><path d="M111.47 128.49c-1.08-1.03-1.08-2.76 0-3.84 11.32-11.32 11.32-29.78 0-41.1a2.68 2.68 0 0 1 0-3.84 2.68 2.68 0 0 1 3.84 0c13.43 13.43 13.43 35.31 0 48.79-.53.54-2.54 1.29-3.84-.01Z" fill="#A0A2B4"/></g><defs><clipPath id="b"><path fill="#fff" transform="translate(52 38)" d="M0 0h73.39v102.4H0z"/></clipPath><filter id="a" x="0" y="0" width="170" height="172" filterUnits="userSpaceOnUse" color-interpolation-filters="sRGB"><feFlood flood-opacity="0" result="BackgroundImageFix"/><feColorMatrix in="SourceAlpha" values="0 0 0 0 0 0 0 0 0 0 0 0 0 0 0 0 0 0 127 0" result="hardAlpha"/><feOffset dx="-4" dy="-4"/><feGaussianBlur stdDeviation="5"/><feComposite in2="hardAlpha" operator="out"/><feColorMatrix values="0 0 0 0 1 0 0 0 0 1 0 0 0 0 1 0 0 0 0.1 0"/><feBlend in2="BackgroundImageFix" result="effect1_dropShadow_2_202"/><feColorMatrix in="SourceAlpha" values="0 0 0 0 0 0 0 0 0 0 0 0 0 0 0 0 0 0 127 0" result="hardAlpha"/><feOffset dy="4"/><feGaussianBlur stdDeviation="2"/><feComposite in2="hardAlpha" operator="out"/><feColorMatrix values="0 0 0 0 0 0 0 0 0 0 0 0 0 0 0 0 0 0 0.25 0"/><feBlend in2="effect1_dropShadow_2_202" result="effect2_dropShadow_2_202"/><feBlend in="SourceGraphic" in2="effect2_dropShadow_2_202" result="shape"/></filter></defs></svg>