<svg xmlns="http://www.w3.org/2000/svg" style="isolation:isolate" viewBox="983.6 95.546 60.998 35.581" width="81.331" height="47.441"><clipPath id="a"><path d="M983.6 131.127h60.998V95.546H983.6v35.581Z" fill="#FFF"/></clipPath><g clip-path="url(#a)"><path d="M983.6 131.127h60.999V95.546H983.6v35.581Z" fill="#FFF"/><path d="m1024.443 108.41 20.156-11.283v-1.581h-1.39l-22.981 12.864h4.215Zm-.951 10.566 21.107 11.812v-2.361l-16.89-9.451h-4.217ZM983.6 98.254l18.056 10.156h4.219L983.6 95.892v2.362Zm21.318 20.722L983.6 130.921v.206h3.851l21.688-12.151h-4.221Z" fill="#CD283A"/><path d="M1040.424 95.546h-21.357v11.961l21.357-11.961Zm-30.787 0h-21.272l21.272 11.961V95.546Zm34.962 12.864v-8.163l-14.488 8.163h14.488Zm0 18.641v-8.075h-14.488l14.488 8.075Zm-55.027 4.076h20.065v-11.244l-20.065 11.244Zm29.495 0h20.129l-20.129-11.244v11.244ZM983.6 118.976v8.439l14.992-8.439H983.6Zm0-10.566h14.992L983.6 99.958v8.452Z" fill="#13307A"/><path d="M1011.524 95.546v14.978H983.6v6.344h27.924v14.259h5.657v-14.259h27.418v-6.344h-27.418V95.546h-5.657Z" fill="#CD283A"/></g></svg>