<svg xmlns="http://www.w3.org/2000/svg" style="isolation:isolate" viewBox="58.843 62.986 551.135 87.819" width="734.847" height="117.092"><g style="isolation:isolate"><path d="M603.222 115.758h.237v1.11c0 5.242-1.022 11.26-8.995 11.26-2.753 0-6.034-.895-6.034-5.155 0-6.341 7.109-7.215 14.792-7.215Zm6.757 17.053-.154-1.081c-.32-2.257-.32-4.233-.32-6.967v-14.928c0-9.374-3.929-13.554-12.737-13.554-3.01 0-7.533 1.061-10.297 2.419l-.529.26v6.375l1.461-.939c2.758-1.775 5.821-2.638 9.365-2.638 4.815 0 6.691 2.172 6.691 7.745v.777c-7.594.001-21.469.089-21.469 12.824 0 1.754.58 10.503 12.012 10.503 3.229 0 7.264-1.341 9.852-4.233v3.437h6.125Zm-30.46-35.735h-8.147l-13.695 12.649V81.152h-6.046v51.658h6.046v-15.966l15.242 15.966h8.385l-19.262-19.752 17.477-15.982Zm-43.976 14.214c-3.212-1.469-5.986-2.738-5.986-4.839 0-3.289 1.883-4.692 6.296-4.692 2.248 0 5.08.605 7.048 1.506l1.195.548.616-5.685-.685-.26c-2.867-1.091-6.486-1.588-8.635-1.588-5.743 0-11.88 2.672-11.88 10.171 0 5.757 4.897 8.07 9.219 10.11 3.711 1.753 6.916 3.266 6.916 6.478 0 3.497-3.366 5.09-6.494 5.09-3.57 0-6.501-1.1-8.332-2.023l-1.238-.623-.595 6.199.656.264c2.774 1.118 5.97 1.661 9.773 1.661 6.307 0 12.67-3.268 12.67-10.568 0-6.926-5.846-9.6-10.544-11.749Zm-24.149 21.521h6.045V81.152h-6.045v51.659Zm-22.561-4.683c-7.515 0-10.182-7.102-10.182-13.185 0-6.082 2.667-13.185 10.182-13.185 7.515 0 10.182 7.103 10.182 13.185 0 6.083-2.667 13.185-10.182 13.185Zm0-31.848c-12.269 0-16.622 10.054-16.622 18.663 0 8.61 4.353 18.664 16.622 18.664s16.623-10.054 16.623-18.664c0-8.609-4.354-18.663-16.623-18.663Zm-25.511 2.408c0 6.865-4.53 8.209-12.355 8.209h-2.214V90.48h6.429c5.249 0 8.14 2.915 8.14 8.208Zm-8.734-14.085h-12.275v48.208h6.44v-20.038h5.374c9.499 0 15.635-5.528 15.635-14.085 0-8.952-5.53-14.085-15.174-14.085Zm-44.36 31.155h.237v1.11c0 5.242-1.023 11.26-8.996 11.26-2.753 0-6.034-.895-6.034-5.155 0-6.341 7.11-7.215 14.793-7.215Zm6.282 9.005v-14.928c0-9.374-3.928-13.554-12.736-13.554-3.01 0-7.533 1.061-10.297 2.419l-.53.26v6.375l1.461-.939c2.759-1.775 5.822-2.638 9.366-2.638 4.814 0 6.691 2.172 6.691 7.745v.777c-7.595.001-21.469.089-21.469 12.824 0 1.754.579 10.503 12.012 10.503 3.229 0 7.264-1.341 9.852-4.233v3.437h6.124l-.154-1.081c-.32-2.257-.32-4.233-.32-6.967Zm-31.125 2.635c-1.022.4-1.989.731-3.474.731-.873 0-3.53 0-3.53-4.626v-20.948h7.639v-5.478h-7.639V87.066l-6.045 2.126v7.885h-6.586v5.478h6.586v18.825c0 5.448 0 12.227 8.587 12.227 2.329 0 4.506-.626 5.426-.997l.643-.259-.414-5.42-1.193.467Zm-47.294-24.843h18.471l-19.261 25.473v4.783h26.922v-5.479h-19.258l19.258-25.407v-4.849h-26.132v5.479Zm-5.465 24.106c-2.732 1.015-4.966 1.467-7.244 1.467-6.615 0-11.235-5.421-11.235-13.184 0-8.133 4.482-13.185 11.696-13.185 1.939 0 4.479.614 6.794 1.643l1.22.542.5-6.052-.704-.236c-1.013-.34-4.097-1.376-8.402-1.376-10.33 0-17.544 7.675-17.544 18.664 0 9.289 5.262 18.663 17.017 18.663 3.236 0 5.994-.212 8.942-1.248l.704-.247-.594-5.878-1.15.427Zm-44.978 1.467c-7.515 0-10.182-7.102-10.182-13.185 0-6.082 2.667-13.185 10.182-13.185 7.516 0 10.182 7.103 10.182 13.185 0 6.083-2.666 13.185-10.182 13.185Zm0-31.848c-12.269 0-16.622 10.054-16.622 18.663 0 8.61 4.353 18.664 16.622 18.664s16.622-10.054 16.622-18.664c0-8.609-4.353-18.663-16.622-18.663Zm-25.512 2.408c0 6.865-4.53 8.209-12.356 8.209h-2.213V90.48h6.428c5.25 0 8.141 2.915 8.141 8.208Zm-8.733-14.085h-12.276v48.208h6.44v-20.038h5.375c9.497 0 15.634-5.528 15.634-14.085 0-8.952-5.53-14.085-15.173-14.085Z" fill="#FFF"/><path d="M206.551 106.41c-2.56 4.155-7.742 9.006-12.008 12.798-4.266 3.791-25.63 22.36-49.136 11.059-24.647-11.849-3.295-48.782.474-55.28 10.242-17.66-7.272-13.913-30.638-1.114 7.222-.509 13.034 1.392 15.563 5.773 4.789 8.296-3.996 22.334-19.623 31.357-15.627 9.022-32.177 9.611-36.967 1.315-1.441-2.497-1.645-5.517-.81-8.761-5.708 5.166-10.157 9.67-11.736 11.701-3.318 4.266-3.95 9.005-.633 10.901 3.318 1.896 10.463-1.624 26.105.272 15.641 1.896 18.729 7.118 28.154 11.801 10.045 4.991 19.841 12.574 43.067 12.574 27.333 0 46.788-29.213 52.928-37.76 8.058-11.218 6.162-24.332-4.74-6.636Z" fill="#FFEC51"/><path d="M186.01 94.554c-4.018-5.868-13.688-6.233-21.597-.816-7.908 5.417-11.061 14.565-7.041 20.433 4.019 5.867 13.689 6.233 21.597.816 7.909-5.417 11.06-14.565 7.041-20.433Z" fill="#FFEC51"/><path d="M113.389 90.185c-1.963-3.401-8.425-3.345-14.433.123-6.007 3.469-9.286 9.037-7.323 12.438 1.964 3.4 8.425 3.345 14.433-.123 6.008-3.469 9.286-9.037 7.323-12.438Z" fill="#FFF"/></g></svg>