<svg width="170" height="172" viewBox="0 0 170 172" fill="none" xmlns="http://www.w3.org/2000/svg">
<g filter="url(#filter0_dd_2_187)">
<rect x="14" y="14" width="150" height="150" rx="20" fill="white"/>
</g>
<g clip-path="url(#clip0_2_187)">
<path d="M81.31 132.29C66.8 132.29 55 120.49 55 105.99C55 96.7201 59.74 88.3101 67.67 83.4901C68.94 82.7201 70.59 83.1201 71.36 84.3901C72.13 85.6601 71.73 87.3101 70.46 88.0801C64.14 91.9101 60.37 98.6001 60.37 105.99C60.37 117.53 69.76 126.93 81.31 126.93C91.37 126.93 100.03 119.76 101.88 109.89C102.15 108.43 103.56 107.48 105.01 107.75C106.47 108.02 107.43 109.43 107.15 110.88C104.82 123.29 93.95 132.29 81.31 132.29Z" fill="#A0A2B4"/>
<path d="M89.57 98.8204C89.57 101.82 86.34 104.25 82.36 104.25C78.38 104.25 75.15 102.78 75.15 98.8204V69.8804C75.15 66.8804 78.38 64.4404 82.36 64.4404C86.34 64.4404 89.57 66.8704 89.57 69.8804V98.8204Z" fill="#A0A2B4"/>
<path d="M82.91 104.28C79.91 104.34 77.43 101.95 77.38 98.9503C77.33 95.9503 79.72 93.4703 82.72 93.4203L104.9 93.0203C107.9 92.9703 110.38 95.3603 110.43 98.3603C110.48 101.36 108.1 103.84 105.09 103.89L82.91 104.28Z" fill="#A0A2B4"/>
<path d="M121.16 124.98C119.49 125.84 117.45 125.18 116.59 123.52L103.94 98.9604C103.08 97.2904 103.74 95.2404 105.4 94.3904C107.07 93.5304 109.12 94.1903 109.97 95.8503L122.62 120.41C123.48 122.07 122.82 124.12 121.16 124.98Z" fill="#A0A2B4"/>
<path d="M108.62 80.7403C108.62 82.4903 107.2 83.9103 105.45 83.9103H85.07C83.32 83.9103 81.9 82.4903 81.9 80.7403C81.9 78.9903 83.31 77.5703 85.07 77.5703H105.45C107.2 77.5803 108.62 78.9903 108.62 80.7403Z" fill="#A0A2B4"/>
<path d="M90.96 54.61C90.96 59.36 87.11 63.22 82.36 63.22C77.61 63.22 73.76 59.37 73.76 54.61C73.76 49.86 77.61 46 82.36 46C87.11 46 90.96 49.85 90.96 54.61Z" fill="#A0A2B4"/>
</g>
<defs>
<filter id="filter0_dd_2_187" x="0" y="0" width="170" height="172" filterUnits="userSpaceOnUse" color-interpolation-filters="sRGB">
<feFlood flood-opacity="0" result="BackgroundImageFix"/>
<feColorMatrix in="SourceAlpha" type="matrix" values="0 0 0 0 0 0 0 0 0 0 0 0 0 0 0 0 0 0 127 0" result="hardAlpha"/>
<feOffset dx="-4" dy="-4"/>
<feGaussianBlur stdDeviation="5"/>
<feComposite in2="hardAlpha" operator="out"/>
<feColorMatrix type="matrix" values="0 0 0 0 1 0 0 0 0 1 0 0 0 0 1 0 0 0 0.1 0"/>
<feBlend mode="normal" in2="BackgroundImageFix" result="effect1_dropShadow_2_187"/>
<feColorMatrix in="SourceAlpha" type="matrix" values="0 0 0 0 0 0 0 0 0 0 0 0 0 0 0 0 0 0 127 0" result="hardAlpha"/>
<feOffset dy="4"/>
<feGaussianBlur stdDeviation="2"/>
<feComposite in2="hardAlpha" operator="out"/>
<feColorMatrix type="matrix" values="0 0 0 0 0 0 0 0 0 0 0 0 0 0 0 0 0 0 0.25 0"/>
<feBlend mode="normal" in2="effect1_dropShadow_2_187" result="effect2_dropShadow_2_187"/>
<feBlend mode="normal" in="SourceGraphic" in2="effect2_dropShadow_2_187" result="shape"/>
</filter>
<clipPath id="clip0_2_187">
<rect width="68" height="86.29" fill="white" transform="translate(55 46)"/>
</clipPath>
</defs>
</svg>
