<svg width="170" height="172" viewBox="0 0 170 172" fill="none" xmlns="http://www.w3.org/2000/svg">
<g filter="url(#filter0_dd_2_202)">
<rect x="14" y="14" width="150" height="150" rx="20" fill="white"/>
</g>
<g clip-path="url(#clip0_2_202)">
<path d="M73.06 40.5C73.06 40.5 81.97 49.54 81.97 61.75C81.97 64.53 78.46 63.72 78.81 66.41C79.88 74.58 92.14 82.89 91.6 87.11C91.06 91.33 85.67 89.54 83.57 92.42C81.35 95.46 85.79 99.14 85.38 101.32C84.97 103.5 75.52 101.54 75.52 103.31C75.52 105.08 84.51 106.17 84.37 107.53C84.23 108.89 80.83 111.21 80.83 113.52C80.83 115.84 84.36 121.1 79.03 125.01C74.81 128.1 67.8 121.84 60.1 126.97C57.74 128.54 54.01 134.77 54.55 137.91" stroke="#A0A2B4" stroke-width="5" stroke-miterlimit="10" stroke-linecap="round"/>
<path d="M98.64 115.721C97.5 114.751 97.56 112.961 98.64 111.871C102.92 107.591 102.92 100.661 98.64 96.3807C97.56 95.3007 97.56 93.6207 98.64 92.5307C99.72 91.4507 101.4 91.4507 102.49 92.5307C108.88 98.9207 108.88 109.321 102.49 115.711C101.94 116.261 99.99 116.911 98.64 115.721Z" fill="#A0A2B4"/>
<path d="M105.41 122.43C104.27 121.46 104.33 119.67 105.41 118.59C113.42 110.58 113.42 97.58 105.41 89.62C104.33 88.54 104.33 86.86 105.41 85.77C106.49 84.69 108.17 84.69 109.26 85.77C119.39 95.9 119.39 112.3 109.26 122.43C108.71 122.97 106.87 123.78 105.41 122.43Z" fill="#A0A2B4"/>
<path d="M111.47 128.49C110.39 127.46 110.39 125.73 111.47 124.65C122.79 113.33 122.79 94.8704 111.47 83.5504C110.39 82.4704 110.39 80.7904 111.47 79.7104C112.55 78.6304 114.23 78.6304 115.31 79.7104C128.74 93.1404 128.74 115.02 115.31 128.5C114.78 129.04 112.77 129.79 111.47 128.49Z" fill="#A0A2B4"/>
</g>
<defs>
<filter id="filter0_dd_2_202" x="0" y="0" width="170" height="172" filterUnits="userSpaceOnUse" color-interpolation-filters="sRGB">
<feFlood flood-opacity="0" result="BackgroundImageFix"/>
<feColorMatrix in="SourceAlpha" type="matrix" values="0 0 0 0 0 0 0 0 0 0 0 0 0 0 0 0 0 0 127 0" result="hardAlpha"/>
<feOffset dx="-4" dy="-4"/>
<feGaussianBlur stdDeviation="5"/>
<feComposite in2="hardAlpha" operator="out"/>
<feColorMatrix type="matrix" values="0 0 0 0 1 0 0 0 0 1 0 0 0 0 1 0 0 0 0.1 0"/>
<feBlend mode="normal" in2="BackgroundImageFix" result="effect1_dropShadow_2_202"/>
<feColorMatrix in="SourceAlpha" type="matrix" values="0 0 0 0 0 0 0 0 0 0 0 0 0 0 0 0 0 0 127 0" result="hardAlpha"/>
<feOffset dy="4"/>
<feGaussianBlur stdDeviation="2"/>
<feComposite in2="hardAlpha" operator="out"/>
<feColorMatrix type="matrix" values="0 0 0 0 0 0 0 0 0 0 0 0 0 0 0 0 0 0 0.25 0"/>
<feBlend mode="normal" in2="effect1_dropShadow_2_202" result="effect2_dropShadow_2_202"/>
<feBlend mode="normal" in="SourceGraphic" in2="effect2_dropShadow_2_202" result="shape"/>
</filter>
<clipPath id="clip0_2_202">
<rect width="73.39" height="102.4" fill="white" transform="translate(52 38)"/>
</clipPath>
</defs>
</svg>
