<?xml version="1.0" encoding="UTF-8" standalone="no"?><!-- Generator: Gravit.io --><svg xmlns="http://www.w3.org/2000/svg" xmlns:xlink="http://www.w3.org/1999/xlink" style="isolation:isolate" viewBox="983.6 95.546 60.998 35.581" width="60.998pt" height="35.581pt"><clipPath id="_clipPath_NZbv2kDcY5i55uMAEdPReCc2UZ5u7YT4"><path d=" M 983.6 131.127 L 1044.598 131.127 L 1044.598 95.546 L 983.6 95.546 L 983.6 131.127 Z " fill="rgb(255,255,255)"/></clipPath><g clip-path="url(#_clipPath_NZbv2kDcY5i55uMAEdPReCc2UZ5u7YT4)"><path d=" M 983.6 131.127 L 1044.599 131.127 L 1044.599 95.546 L 983.6 95.546 L 983.6 131.127 Z " fill="rgb(255,255,255)"/><path d=" M 1024.443 108.41 L 1044.599 97.127 L 1044.599 95.546 L 1043.209 95.546 L 1020.228 108.41 L 1024.443 108.41 Z " fill="rgb(205,40,58)"/><path d=" M 1023.492 118.976 L 1044.599 130.788 L 1044.599 128.427 L 1027.709 118.976 L 1023.492 118.976 Z " fill="rgb(205,40,58)"/><path d=" M 983.6 98.254 L 1001.656 108.41 L 1005.875 108.41 L 983.6 95.892 L 983.6 98.254 Z " fill="rgb(205,40,58)"/><path d=" M 1004.918 118.976 L 983.6 130.921 L 983.6 131.127 L 987.451 131.127 L 1009.139 118.976 L 1004.918 118.976 Z " fill="rgb(205,40,58)"/><path d=" M 1040.424 95.546 L 1019.067 95.546 L 1019.067 107.507 L 1040.424 95.546 Z " fill="rgb(19,48,122)"/><path d=" M 1009.637 95.546 L 988.365 95.546 L 1009.637 107.507 L 1009.637 95.546 Z " fill="rgb(19,48,122)"/><path d=" M 1044.599 108.41 L 1044.599 100.247 L 1030.111 108.41 L 1044.599 108.41 Z " fill="rgb(19,48,122)"/><path d=" M 1044.599 127.051 L 1044.599 118.976 L 1030.111 118.976 L 1044.599 127.051 Z " fill="rgb(19,48,122)"/><path d=" M 989.572 131.127 L 1009.637 131.127 L 1009.637 119.883 L 989.572 131.127 Z " fill="rgb(19,48,122)"/><path d=" M 1019.067 131.127 L 1039.196 131.127 L 1019.067 119.883 L 1019.067 131.127 Z " fill="rgb(19,48,122)"/><path d=" M 983.6 118.976 L 983.6 127.415 L 998.592 118.976 L 983.6 118.976 Z " fill="rgb(19,48,122)"/><path d=" M 983.6 108.41 L 998.592 108.41 L 983.6 99.958 L 983.6 108.41 Z " fill="rgb(19,48,122)"/><path d=" M 1011.524 95.546 L 1011.524 110.524 L 983.6 110.524 L 983.6 116.868 L 1011.524 116.868 L 1011.524 131.127 L 1017.181 131.127 L 1017.181 116.868 L 1044.599 116.868 L 1044.599 110.524 L 1017.181 110.524 L 1017.181 95.546 L 1011.524 95.546 Z " fill="rgb(205,40,58)"/></g></svg>