<?xml version="1.0" encoding="UTF-8" standalone="no"?><!-- Generator: Gravit.io --><svg xmlns="http://www.w3.org/2000/svg" xmlns:xlink="http://www.w3.org/1999/xlink" style="isolation:isolate" viewBox="58.843 62.986 551.135 87.819" width="551.135pt" height="87.819pt"><g style="isolation:isolate"><path d=" M 603.222 115.758 L 603.459 115.758 L 603.459 116.868 C 603.459 122.11 602.437 128.128 594.464 128.128 C 591.711 128.128 588.43 127.233 588.43 122.973 C 588.43 116.632 595.539 115.758 603.222 115.758 Z  M 609.979 132.811 L 609.825 131.73 C 609.505 129.473 609.505 127.497 609.505 124.763 L 609.505 109.835 C 609.505 100.461 605.576 96.281 596.768 96.281 C 593.758 96.281 589.235 97.342 586.471 98.7 L 585.942 98.96 L 585.942 105.335 L 587.403 104.396 C 590.161 102.621 593.224 101.758 596.768 101.758 C 601.583 101.758 603.459 103.93 603.459 109.503 L 603.459 110.28 C 595.865 110.281 581.99 110.369 581.99 123.104 C 581.99 124.858 582.57 133.607 594.002 133.607 C 597.231 133.607 601.266 132.266 603.854 129.374 L 603.854 132.811 L 609.979 132.811 Z " fill="rgb(255,255,255)"/><path d=" M 579.519 97.076 L 571.372 97.076 L 557.677 109.725 L 557.677 81.152 L 551.631 81.152 L 551.631 132.81 L 557.677 132.81 L 557.677 116.844 L 572.919 132.81 L 581.304 132.81 L 562.042 113.058 L 579.519 97.076 Z " fill="rgb(255,255,255)"/><path d=" M 535.543 111.29 C 532.331 109.821 529.557 108.552 529.557 106.451 C 529.557 103.162 531.44 101.759 535.853 101.759 C 538.101 101.759 540.933 102.364 542.901 103.265 L 544.096 103.813 L 544.712 98.128 L 544.027 97.868 C 541.16 96.777 537.541 96.28 535.392 96.28 C 529.649 96.28 523.512 98.952 523.512 106.451 C 523.512 112.208 528.409 114.521 532.731 116.561 C 536.442 118.314 539.647 119.827 539.647 123.039 C 539.647 126.536 536.281 128.129 533.153 128.129 C 529.583 128.129 526.652 127.029 524.821 126.106 L 523.583 125.483 L 522.988 131.682 L 523.644 131.946 C 526.418 133.064 529.614 133.607 533.417 133.607 C 539.724 133.607 546.087 130.339 546.087 123.039 C 546.087 116.113 540.241 113.439 535.543 111.29 Z " fill="rgb(255,255,255)"/><path d=" M 511.394 132.811 L 517.439 132.811 L 517.439 81.152 L 511.394 81.152 L 511.394 132.811 Z " fill="rgb(255,255,255)"/><path d=" M 488.833 128.128 C 481.318 128.128 478.651 121.026 478.651 114.943 C 478.651 108.861 481.318 101.758 488.833 101.758 C 496.348 101.758 499.015 108.861 499.015 114.943 C 499.015 121.026 496.348 128.128 488.833 128.128 Z  M 488.833 96.28 C 476.564 96.28 472.211 106.334 472.211 114.943 C 472.211 123.553 476.564 133.607 488.833 133.607 C 501.102 133.607 505.456 123.553 505.456 114.943 C 505.456 106.334 501.102 96.28 488.833 96.28 Z " fill="rgb(255,255,255)"/><path d=" M 463.322 98.688 C 463.322 105.553 458.792 106.897 450.967 106.897 L 448.753 106.897 L 448.753 90.48 L 455.182 90.48 C 460.431 90.48 463.322 93.395 463.322 98.688 Z  M 454.588 84.603 L 442.313 84.603 L 442.313 132.811 L 448.753 132.811 L 448.753 112.773 L 454.127 112.773 C 463.626 112.773 469.762 107.245 469.762 98.688 C 469.762 89.736 464.232 84.603 454.588 84.603 Z " fill="rgb(255,255,255)"/><path d=" M 410.228 115.758 L 410.465 115.758 L 410.465 116.868 C 410.465 122.11 409.442 128.128 401.469 128.128 C 398.716 128.128 395.435 127.233 395.435 122.973 C 395.435 116.632 402.545 115.758 410.228 115.758 Z  M 416.51 124.763 L 416.51 109.835 C 416.51 100.461 412.582 96.281 403.774 96.281 C 400.764 96.281 396.241 97.342 393.477 98.7 L 392.947 98.96 L 392.947 105.335 L 394.408 104.396 C 397.167 102.621 400.23 101.758 403.774 101.758 C 408.588 101.758 410.465 103.93 410.465 109.503 L 410.465 110.28 C 402.87 110.281 388.996 110.369 388.996 123.104 C 388.996 124.858 389.575 133.607 401.008 133.607 C 404.237 133.607 408.272 132.266 410.86 129.374 L 410.86 132.811 L 416.984 132.811 L 416.83 131.73 C 416.51 129.473 416.51 127.497 416.51 124.763 Z " fill="rgb(255,255,255)"/><path d=" M 385.385 127.398 C 384.363 127.798 383.396 128.129 381.911 128.129 C 381.038 128.129 378.381 128.129 378.381 123.503 L 378.381 102.555 L 386.02 102.555 L 386.02 97.077 L 378.381 97.077 L 378.381 87.066 L 372.336 89.192 L 372.336 97.077 L 365.75 97.077 L 365.75 102.555 L 372.336 102.555 L 372.336 121.38 C 372.336 126.828 372.336 133.607 380.923 133.607 C 383.252 133.607 385.429 132.981 386.349 132.61 L 386.992 132.351 L 386.578 126.931 L 385.385 127.398 Z " fill="rgb(255,255,255)"/><path d=" M 338.091 102.555 L 356.562 102.555 L 337.301 128.028 L 337.301 132.811 L 364.223 132.811 L 364.223 127.332 L 344.965 127.332 L 364.223 101.925 L 364.223 97.076 L 338.091 97.076 L 338.091 102.555 Z " fill="rgb(255,255,255)"/><path d=" M 332.626 126.661 C 329.894 127.676 327.66 128.128 325.382 128.128 C 318.767 128.128 314.147 122.707 314.147 114.944 C 314.147 106.811 318.629 101.759 325.843 101.759 C 327.782 101.759 330.322 102.373 332.637 103.402 L 333.857 103.944 L 334.357 97.892 L 333.653 97.656 C 332.64 97.316 329.556 96.28 325.251 96.28 C 314.921 96.28 307.707 103.955 307.707 114.944 C 307.707 124.233 312.969 133.607 324.724 133.607 C 327.96 133.607 330.718 133.395 333.666 132.359 L 334.37 132.112 L 333.776 126.234 L 332.626 126.661 Z " fill="rgb(255,255,255)"/><path d=" M 287.648 128.128 C 280.133 128.128 277.466 121.026 277.466 114.943 C 277.466 108.861 280.133 101.758 287.648 101.758 C 295.164 101.758 297.83 108.861 297.83 114.943 C 297.83 121.026 295.164 128.128 287.648 128.128 Z  M 287.648 96.28 C 275.379 96.28 271.026 106.334 271.026 114.943 C 271.026 123.553 275.379 133.607 287.648 133.607 C 299.917 133.607 304.27 123.553 304.27 114.943 C 304.27 106.334 299.917 96.28 287.648 96.28 Z " fill="rgb(255,255,255)"/><path d=" M 262.136 98.688 C 262.136 105.553 257.606 106.897 249.78 106.897 L 247.567 106.897 L 247.567 90.48 L 253.995 90.48 C 259.245 90.48 262.136 93.395 262.136 98.688 Z  M 253.403 84.603 L 241.127 84.603 L 241.127 132.811 L 247.567 132.811 L 247.567 112.773 L 252.942 112.773 C 262.439 112.773 268.576 107.245 268.576 98.688 C 268.576 89.736 263.046 84.603 253.403 84.603 Z " fill="rgb(255,255,255)"/><path d=" M 206.551 106.41 C 203.991 110.565 198.809 115.416 194.543 119.208 C 190.277 122.999 168.913 141.568 145.407 130.267 C 120.76 118.418 142.112 81.485 145.881 74.987 C 156.123 57.327 138.609 61.074 115.243 73.873 C 122.465 73.364 128.277 75.265 130.806 79.646 C 135.595 87.942 126.81 101.98 111.183 111.003 C 95.556 120.025 79.006 120.614 74.216 112.318 C 72.775 109.821 72.571 106.801 73.406 103.557 C 67.698 108.723 63.249 113.227 61.67 115.258 C 58.352 119.524 57.72 124.263 61.037 126.159 C 64.355 128.055 71.5 124.535 87.142 126.431 C 102.783 128.327 105.871 133.549 115.296 138.232 C 125.341 143.223 135.137 150.806 158.363 150.806 C 185.696 150.806 205.151 121.593 211.291 113.046 C 219.349 101.828 217.453 88.714 206.551 106.41 Z " fill="rgb(255,236,81)"/><path d=" M 186.01 94.554 C 181.992 88.686 172.322 88.321 164.413 93.738 C 156.505 99.155 153.352 108.303 157.372 114.171 C 161.391 120.038 171.061 120.404 178.969 114.987 C 186.878 109.57 190.029 100.422 186.01 94.554 Z " fill="rgb(255,236,81)"/><path d=" M 113.389 90.185 C 111.426 86.784 104.964 86.84 98.956 90.308 C 92.949 93.777 89.67 99.345 91.633 102.746 C 93.597 106.146 100.058 106.091 106.066 102.623 C 112.074 99.154 115.352 93.586 113.389 90.185 Z " fill="rgb(255,255,255)"/></g></svg>